<svg width="56" height="56" viewBox="0 0 56 56" fill="none" xmlns="http://www.w3.org/2000/svg">
<g filter="url(#filter0_d_121_53921)">
<path d="M4 0H47C49.7614 0 52 2.23858 52 5V43C52 45.7614 49.7614 48 47 48H4V0Z" fill="#3056D3"/>
<path d="M35.3052 18H20.6948C19.7597 18 19 18.7991 19 19.7825V29.2175C19 30.2009 19.7597 31 20.6948 31H35.3052C36.2403 31 37 30.2009 37 29.2175V19.7825C37 18.7991 36.2403 18 35.3052 18ZM35.3052 19.0756C35.4513 19.0756 35.5682 19.1064 35.6851 19.1986L28.4091 23.8392C28.1461 23.9929 27.8539 23.9929 27.5909 23.8392L20.3149 19.1986C20.4318 19.1371 20.5487 19.0756 20.6948 19.0756H35.3052ZM35.3052 29.8936H20.6948C20.3442 29.8936 20.0227 29.5863 20.0227 29.1868V20.2742L27.0357 24.7612C27.3279 24.9456 27.6494 25.0378 27.9708 25.0378C28.2922 25.0378 28.6136 24.9456 28.9058 24.7612L35.9188 20.2742V29.1868C35.9773 29.5863 35.6558 29.8936 35.3052 29.8936Z" fill="white"/>
</g>
<defs>
<filter id="filter0_d_121_53921" x="0" y="0" width="56" height="56" filterUnits="userSpaceOnUse" color-interpolation-filters="sRGB">
<feFlood flood-opacity="0" result="BackgroundImageFix"/>
<feColorMatrix in="SourceAlpha" type="matrix" values="0 0 0 0 0 0 0 0 0 0 0 0 0 0 0 0 0 0 127 0" result="hardAlpha"/>
<feOffset dy="4"/>
<feGaussianBlur stdDeviation="2"/>
<feComposite in2="hardAlpha" operator="out"/>
<feColorMatrix type="matrix" values="0 0 0 0 0 0 0 0 0 0 0 0 0 0 0 0 0 0 0.25 0"/>
<feBlend mode="normal" in2="BackgroundImageFix" result="effect1_dropShadow_121_53921"/>
<feBlend mode="normal" in="SourceGraphic" in2="effect1_dropShadow_121_53921" result="shape"/>
</filter>
</defs>
</svg>
